<svg width="32" height="32" viewBox="0 0 32 32" fill="none" xmlns="http://www.w3.org/2000/svg">
<g clip-path="url(#clip0_1_963)">
<mask id="mask0_1_963" style="mask-type:luminance" maskUnits="userSpaceOnUse" x="0" y="0" width="32" height="32">
<path d="M32 0H0V32H32V0Z" fill="white"/>
</mask>
<g mask="url(#mask0_1_963)">
<path d="M0 5.33333C0 2.38782 2.38781 0 5.33333 0H26.6667C29.6122 0 32 2.38781 32 5.33333V26.6667C32 29.6122 29.6122 32 26.6667 32H5.33333C2.38782 32 0 29.6122 0 26.6667V5.33333Z" fill="#6C6C6C"/>
<path d="M16 7C13.555 7 13.2498 7.01125 12.2898 7.054C11.3313 7.099 10.6788 7.24975 10.105 7.4725C9.51325 7.702 9.01075 8.01025 8.5105 8.5105C8.01025 9.01075 7.70125 9.5125 7.4725 10.105C7.24975 10.6788 7.09825 11.3313 7.054 12.2898C7.009 13.2498 7 13.555 7 16C7 18.445 7.01125 18.7502 7.054 19.7103C7.099 20.668 7.24975 21.3213 7.4725 21.895C7.702 22.486 8.01025 22.9893 8.5105 23.4895C9.01075 23.989 9.5125 24.2988 10.105 24.5275C10.6795 24.7495 11.332 24.9018 12.2898 24.946C13.2498 24.991 13.555 25 16 25C18.445 25 18.7502 24.9888 19.7103 24.946C20.668 24.901 21.3213 24.7495 21.895 24.5275C22.486 24.298 22.9893 23.989 23.4895 23.4895C23.989 22.9893 24.2988 22.4883 24.5275 21.895C24.7495 21.3213 24.9018 20.668 24.946 19.7103C24.991 18.7502 25 18.445 25 16C25 13.555 24.9888 13.2498 24.946 12.2898C24.901 11.332 24.7495 10.678 24.5275 10.105C24.298 9.51325 23.989 9.01075 23.4895 8.5105C22.9893 8.01025 22.4883 7.70125 21.895 7.4725C21.3213 7.24975 20.668 7.09825 19.7103 7.054C18.7502 7.009 18.445 7 16 7ZM16 8.62C18.4023 8.62 18.6888 8.632 19.6375 8.67325C20.515 8.7145 20.9913 8.86 21.3078 8.9845C21.7292 9.14725 22.0278 9.34225 22.3443 9.6565C22.6585 9.9715 22.8535 10.2708 23.0163 10.6923C23.1392 11.0087 23.2862 11.485 23.326 12.3625C23.3687 13.312 23.3785 13.597 23.3785 16C23.3785 18.403 23.3673 18.6888 23.323 19.6375C23.2773 20.515 23.131 20.9913 23.0072 21.3078C22.8393 21.7292 22.648 22.0278 22.333 22.3443C22.0188 22.6585 21.715 22.8535 21.298 23.0163C20.983 23.1392 20.4993 23.2862 19.6217 23.326C18.6663 23.3687 18.385 23.3785 15.9775 23.3785C13.5693 23.3785 13.288 23.3673 12.3333 23.323C11.455 23.2773 10.9713 23.131 10.6562 23.0072C10.2295 22.8393 9.93625 22.648 9.622 22.333C9.30625 22.0188 9.1045 21.715 8.947 21.298C8.82325 20.983 8.67775 20.4993 8.632 19.6217C8.59825 18.6768 8.58625 18.385 8.58625 15.9887C8.58625 13.5917 8.59825 13.2993 8.632 12.343C8.67775 11.4655 8.82325 10.9825 8.947 10.6675C9.1045 10.24 9.30625 9.9475 9.622 9.63175C9.93625 9.3175 10.2295 9.115 10.6562 8.95825C10.9713 8.83375 11.4445 8.6875 12.322 8.6425C13.2783 8.60875 13.5595 8.5975 15.9663 8.5975L16 8.62ZM16 11.3785C13.4462 11.3785 11.3785 13.4485 11.3785 16C11.3785 18.5538 13.4485 20.6215 16 20.6215C18.5538 20.6215 20.6215 18.5515 20.6215 16C20.6215 13.4462 18.5515 11.3785 16 11.3785ZM16 19C14.3425 19 13 17.6575 13 16C13 14.3425 14.3425 13 16 13C17.6575 13 19 14.3425 19 16C19 17.6575 17.6575 19 16 19ZM21.8845 11.1962C21.8845 11.7925 21.4 12.2762 20.8045 12.2762C20.2083 12.2762 19.7245 11.7917 19.7245 11.1962C19.7245 10.6007 20.209 10.117 20.8045 10.117C21.3993 10.1163 21.8845 10.6007 21.8845 11.1962Z" fill="white"/>
</g>
</g>
<defs>
<clipPath id="clip0_1_963">
<rect width="32" height="32" fill="white"/>
</clipPath>
</defs>
</svg>
