<svg width="32" height="32" viewBox="0 0 32 32" fill="none" xmlns="http://www.w3.org/2000/svg">
<g clip-path="url(#clip0_1_979)">
<mask id="mask0_1_979" style="mask-type:luminance" maskUnits="userSpaceOnUse" x="0" y="0" width="32" height="32">
<path d="M32 0H0V32H32V0Z" fill="white"/>
</mask>
<g mask="url(#mask0_1_979)">
<path d="M0 5.33333C0 2.38782 2.38781 0 5.33333 0H26.6667C29.6122 0 32 2.38781 32 5.33333V26.6667C32 29.6122 29.6122 32 26.6667 32H5.33333C2.38782 32 0 29.6122 0 26.6667V5.33333Z" fill="#6C6C6C"/>
<path d="M14.2785 18.2269L14.0138 22.1357C14.3925 22.1357 14.5565 21.9649 14.7532 21.7598L16.5287 19.9783L20.2076 22.807C20.8823 23.2018 21.3576 22.9939 21.5396 22.1553L23.9545 10.2749C24.1685 9.22772 23.5944 8.81752 22.9371 9.07442L8.74283 14.7801C7.7741 15.1749 7.78877 15.7419 8.57816 15.9988L12.2071 17.1839L20.6363 11.6462C21.0329 11.3704 21.3936 11.523 21.0969 11.7988L14.2785 18.2269Z" fill="white"/>
</g>
</g>
<defs>
<clipPath id="clip0_1_979">
<rect width="32" height="32" fill="white"/>
</clipPath>
</defs>
</svg>
